        <svg id="new-loader-svg" data-name="New Layer" xmlns="http://www.w3.org/2000/svg" viewBox="0 0 467.93 475.67">
            <defs>
                <style>
                    /* Re-mapped colors to StreamPartner Theme */
                    .cls-1 {
                        fill: #C1121F;
                    }

                    /* Accent Red */
                    .cls-2 {
                        fill: #E9C46A;
                    }

                    /* Secondary Gold */
                    .cls-3 {
                        fill: #264653;
                    }

                    /* Darker Teal */
                    .cls-4 {
                        fill: #2A9D8F;
                    }

                    /* Primary Teal */
                    .cls-5 {
                        fill: #1E1E1E;
                    }

                    /* Surface Highlight */
                    .cls-6 {
                        fill: #bfa15f;
                    }

                    /* Muted Gold */
                    .cls-7 {
                        fill: #2A9D8F;
                    }

                    /* Teal */
                    .cls-8 {
                        fill: #E9C46A;
                    }

                    /* Gold */
                    .cls-9 {
                        fill: #a30f1a;
                    }

                    /* Dark Red */
                    .cls-10 {
                        fill: #F4D58D;
                    }

                    /* Light Gold */
                    .cls-11 {
                        fill: #69c0b3;
                    }

                    /* Light Teal */
                    .cls-12 {
                        fill: #121212;
                    }

                    /* Surface */
                    .cls-13 {
                        fill: #D4AF37;
                    }

                    /* Metallic Gold */
                    .cls-14 {
                        fill: #E9C46A;
                    }

                    /* Gold */
                    .cls-15 {
                        fill: #2A9D8F;
                    }

                    /* Primary */
                    .cls-16 {
                        fill: #8a0c16;
                    }

                    /* Deep Red */
                </style>
            </defs>
            <path class="cls-12"
                d="M16.82,333.96c-27.07-44.51-18.85-75.06,6.18-117.07,23.66-39.7,50.95-77.32,74.69-116.93,3.02-5.04,9.12-14.09,11.13-18.81,3.17-7.48,2.84-10.78-3.25-16.06-6.54-5.65-21.48-13.71-29.55-18.35-6.45-3.71-18.39-8.36-23.6-12.33-1.13-.86-2.04-1.04-1.65-2.83,18.46-4.3,37.06-8.15,55.7-11.67C146.72,12.32,224.95-5.87,262.58,1.88c46.47,9.57,60.25,54.02,80.05,90.61,11.34,20.95,22.76,41.95,33.94,62.87,10.56,19.77,26.41,42.37,32.03,63.86.33,1.27-.25,1.87-.54,2.96.62.51,7.66-3.06,8.53-3.94,1.4-1.41,1.74-3.72,3.38-5.6,5.22-5.97,36.23-25.37,44.66-30.19,1.12-.64,1.81-1.5,3.31-1.18v24.45c-7.44,22.92-16.94,45.15-24.97,67.84-19.11,54.03-31.22,126.09-102.24,130.29-58.8,3.48-118.01-2.73-176.65-4.07-6.93-.16-21.92-1.8-25.97,4.05-3.53,5.1-.59,11.99-.48,17.4.23,11.04.63,22.01,1,32.93.24,7.14-.26,14.36-.04,21.5h-5.99c-7.02-9.98-17.96-19.57-23.95-29.94-6.49-11.23-14.72-27.62-25.85-36.52-1.97-1.58-4.19-1.06-4.87-1.62-4.65-3.85-9.92-15.59-13.75-20.7-8.22-10.95-21.92-20.44-28.39-33.46l-12.96-11.49c-.59-.82-.74-1.63-1-2,.18-2.18.51-3.52-2-2.99-.2-.31-1.24-.79-2-2l-1-1ZM211.43,12.61c-23.83,4.07-50.7,9.5-75.85,13.97-15.79,2.8-32.23,6.57-47.91,8.98-4.05.62-8.81-.88-12.97,1.01-.34.46,1,1.5,1.52,1.96,10.13,9.13,38.19,23.29,51.38,30.96l-30.94,50.9c-1.4,1.51-1.68,2.64-2,2.99-2.76,3.09-2.3,3.43-3.99,5.99-14.69,22.23-27.98,45.23-41.92,67.86-21.08,34.25-43.06,54.11-38.91,98.29,2.1,22.42,15.91,34.6,28.93,50.41,14.2,17.23,28.44,36.07,43.4,52.9,1.72,1.93,3.8,4.5,6.5,4.98-.1,2.81,2.29,5.29,4.02,7.45,7.84,9.77,16.82,18.97,24.92,28.47,2.08,2.44,3.64,5.62,5.63,7.88.55.62,4.68,4.87,5.34,4.09-.85-119.06,1.15-238.22,0-357.27,2.86-8-.31-16.82,0-24.95,17.26,10.03,34.61,19.96,51.9,29.94,54.83,31.67,109.92,63.08,164.68,94.81,4.34,2.51,8.57,5.43,12.97,7.98,11.66,6.75,24.32,15.27,36.01,21.38,1.63.86,2.84,1.84,4.91,1.57,1.44,2.25,3.04,3.32,4.99,4.99-16.42,8.6-31.89,18.76-47.91,27.94-52.01,29.82-105.86,59.28-157.24,89.77l-20.41,13.02c-16.31,6.71-30.56,17.48-45.9,25.96-.4,1.8,1.61.65,1.99.99.12.11-.47,1.67.68,1.99,8.11,2.24,18.38-.27,26.72,2.04,40.01.06,79.85,1.69,119.85,2.91,34,1.04,70.89,9.07,99.76-13.93,29.56-23.54,46.02-89.71,58.38-125.75,4.57-13.32,8.81-25.42,12.97-38.92,1.11-3.61,3.76-3.98,3.99-9.98,2.74-1.44,2.98-5.28,2.99-7.98-.6-.65-6.63,2.35-6.98,3.99-2,.3-3.27,1.11-4.99,2-2.02,1.04-3.12,2.5-3.99,2.99-12.56,7.07-25.43,13.78-37.93,20.96l-12.97-21.96c-.08-.31.08-.69,0-1-.11-.44-.57-.81-1-1-11.82-31.05-36.7-63.6-49.9-94.81-.18-.44-.85-.72-1-1-.14-.26.14-.74,0-1-19.05-35.71-39.73-91.75-85.35-97.79-16.59-2.2-28.4.25-44.4,2.98ZM157.54,142.35c-.34.62-.75,1.34-1,2-3.6,9.57-2.15,28.49-2.01,39.43.02,1.69-.64,4.44,1.02,5.47-.32,17.64-1.34,35.17-1,52.89.1,4.96-.23,10.02,0,14.97-1.49,1.57-.99,3.56-1.03,5.45-.24,12.36-1.75,36.66.26,47.71.53,2.92,5.04,9.66,7.19,11.77.28.28,5.24,3.78,5.55,3.93,15.95,7.75,25.97-3.28,38.23-10.17,14.6-8.2,29.1-16.44,43.61-24.76,1.2-.69,2.55-1.16,3.99-2,.25-.14.75.14,1,0,6.52-3.76,14.93-8.32,20.98-12.46,1.43-.98,3.13-1.04,2.98-3.51,2.65-1.31,5.35-2.65,7.98-3.99.04-.02-.18.61,1,0s1.8-1.89,2-2c4.83-2.53,9.7-4.93,14.65-7.82,5.78-3.37,12.75-5.65,17.28-11.14,11.3-5.13,14.73-19.47,8.62-30.08-5.47-9.49-37.57-25.37-48.54-31.79-8.24-4.82-16.7-9.23-24.95-13.97-16.67-9.58-33.1-19.54-49.9-28.94-4.93-2.76-12.15-8.76-17.96-8.98-9.96-7.09-24.27-2.21-29.94,7.98Z" />
            <path class="cls-5"
                d="M22.8,341.94l12.96,11.49c6.47,13.02,20.17,22.51,28.39,33.46,3.83,5.11,9.1,16.85,13.75,20.7.68.56,2.9.04,4.87,1.62,11.13,8.9,19.37,25.3,25.85,36.52-20.35-23.84-39.98-48.17-59.91-72.33-9.05-10.97-17.53-19.78-25.92-31.46Z" />
            <path class="cls-6" d="M19.81,336.95c2.5-.52,2.18.81,2,2.99-.67-.96-1.34-2.01-2-2.99Z" />
            <path class="cls-6" d="M17.81,334.95c-.22-.35-.77-.62-1-1l1,1Z" />
            <path class="cls-16"
                d="M439.98,255.12c-12.37,36.04-28.83,102.21-58.38,125.75-28.88,23-65.77,14.97-99.76,13.93-40-1.22-79.84-2.85-119.85-2.91-8.34-2.3-18.61.2-26.72-2.04-1.16-.32-.56-1.88-.68-1.99,2.34-1.77,5.46-2.6,7.98-3.99,3.25,1.5,8.74.44,12.34-.14,29.25-4.69,57.57-13.25,86.46-19.33,30.22-6.36,60.91-10.93,91.04-17.75,4.88-1.1,16.9-3.43,20.71-5.24,7.9-3.76,17.16-32.59,18.56-41.32,1.84-11.52-2.3-15.62,10.96-21.08,1.52-.63,3.07.07,4.37-.5,17.63-7.8,34.93-16.64,52.99-23.38ZM390.84,338.15c-14.22,2-9.65,21.84,4.52,18.55,9.45-2.2,6.7-20.13-4.52-18.55ZM326.27,358.83c.81,1.27,7.13,1.9,5.91-2.4-.82-2.89-8.08-.98-5.91,2.4ZM253.35,364.9c-2.86-.87-10.46,1.93-6.86,4.88,1.34,1.1,9.46-.74,6.86-4.88Z" />
            <path class="cls-1"
                d="M452.96,216.2c-4.17,13.5-8.4,25.6-12.97,38.92-18.06,6.74-35.36,15.58-52.99,23.38-1.3.57-2.85-.12-4.37.5-13.25,5.45-9.11,9.56-10.96,21.08-1.4,8.73-10.66,37.56-18.56,41.32-3.81,1.82-15.83,4.14-20.71,5.24-30.12,6.81-60.82,11.39-91.04,17.75-28.89,6.08-57.2,14.64-86.46,19.33-3.6.58-9.09,1.63-12.34.14,29.47-16.3,62.63-27.39,95.03-41,25.54-10.73,51.52-22.91,76.93-34.05,7.73-3.39,52.89-20.49,55.14-24.76,1.69-3.2-2.2-5.38-3.39-7.62-1.59-2.99-2.57-9.03-7.14-9.33l1-2c31.66-15.14,61.13-34.33,92.82-48.9Z" />
            <path class="cls-15"
                d="M126.6,84.46c.02,4.72-.36,12.96-.92,17.53-6.73,55.21-15.67,112.43-22.03,168.6-2.31,20.39-4.6,40.88-5.94,61.31,8.26,2.02,15.77.86,23.89-.94-1.95,12.63-.7,25.66-.95,38.46-.35,17.91.97,44.18-1.01,60.87-.39,3.27-2.8,5.83-2.03,9.45-8.1-9.51-17.08-18.7-24.92-28.47-1.73-2.16-4.13-4.64-4.02-7.45l7.86-70.18c-9.97-7.48-19.5-13.7-27.24-23.72-4.52-5.85-7.67-13.23-12.56-18.87.38-1.25-.36-3.68,0-4.99,3.97-14.44,11.73-31.68,16.65-46.73,12.89-39.45,24.26-79.65,37.76-118.92,3.92-11.4,9.14-22.33,12.47-33.94l1.48,2,1.5-4ZM93.41,260.33c-5.48.48-7.04,8.77-5.59,13.11.85,2.56,11.89,2.54,12.69,0,.19-.61,1.08-8.21.98-8.63-.58-2.6-5.48-4.7-8.08-4.47Z" />
            <path class="cls-2"
                d="M211.43,12.61c-.09,2.26,1.39,2.66,2.68,3.81,7.41,6.59,14.25,13.71,20.79,21.13,5.85,6.63,10.3,16.6,18.81,19.12,8.47,2.51,18.25,3.26,26.8,6.13,17.73,5.94,46.46,25.24,57.37,39.92,1.19,1.6.02,5.27,3.29,4.7.14.26-.14.74,0,1l1,1c13.2,31.21,38.09,63.76,49.9,94.81.15.4.64.74,1,1,.08.31-.08.69,0,1,1.12,4.09,2.59,7.99,3.99,11.98-3.83-1.47-7.71-5.89-10.49-8.97-42.01-46.45-81.81-95.59-124.73-140.74-1.87-1.97-8.98-9.44-10.54-10.42-4.97-3.12-22.71-.51-29.12.72-9.86,1.89-17,6.24-25.72,10.71-.38-1.04-.7-2.23-1-2.99-1.59-4.04-1.53-3.82-5.99-3.99-2.46-.09-4.67.22-6.99,1-.29-1.24-4.26-4.9-5.51-5.97l-41.4-30.96c25.15-4.47,52.02-9.9,75.85-13.97ZM195.46,25.59l-3,2.98c-.45.78-2.09-4.03-3.98-1.99-2.93,3.17,8.78,7.56,6.98-1Z" />
            <path class="cls-11"
                d="M126.6,80.47c.22-.09.26-1.52,1.99-.99.05,4.98-.04,9.99,0,14.96,1.15,119.05-.86,238.21,0,357.27-.66.78-4.8-3.47-5.34-4.09-1.99-2.26-3.55-5.44-5.63-7.88-.78-3.62,1.64-6.18,2.03-9.45,1.98-16.69.66-42.96,1.01-60.87.25-12.8-1-25.83.95-38.46-8.12,1.8-15.63,2.96-23.89.94,1.34-20.44,3.63-40.93,5.94-61.31,6.36-56.17,15.3-113.39,22.03-168.6.56-4.58.94-12.81.92-17.53,0-1.33,0-2.66,0-3.99Z" />
            <path class="cls-4"
                d="M126.6,80.47c0,1.33,0,2.66,0,3.99l-1.5,4-1.48-2c-3.33,11.61-8.55,22.54-12.47,33.94-13.51,39.27-24.88,79.47-37.76,118.92-4.91,15.05-12.68,32.29-16.65,46.73l-5.27-10.19c-9.36-28.73-6.94-44.52-1.95-73.4.27-1.57.98-4.26-.76-5.23,13.93-22.63,27.23-45.64,41.92-67.86,4.01.98,3.89-2.75,3.99-5.99.32-.36.59-1.48,2-2.99,7.69-8.3,12.86-20.13,20.55-27.33,4.18-3.91,4.91-10.74,9.39-12.59Z" />
            <path class="cls-3"
                d="M48.75,197.23c1.74.97,1.03,3.65.76,5.23-4.99,28.87-7.4,44.66,1.95,73.4l5.27,10.19c-.36,1.31.38,3.74,0,4.99-.04.12-1.36.55-1.74,1.72-5.71,17.68-11.69,35.13-16.23,53.17-13.02-15.81-26.83-27.99-28.93-50.41-4.15-44.18,17.83-64.04,38.91-98.29Z" />
            <path class="cls-6"
                d="M341.18,107.42c-3.28.57-2.11-3.1-3.29-4.7-10.91-14.68-39.64-33.98-57.37-39.92-8.56-2.87-18.34-3.62-26.8-6.13-8.51-2.52-12.96-12.49-18.81-19.12-6.54-7.42-13.38-14.54-20.79-21.13-1.29-1.15-2.77-1.55-2.68-3.81,15.99-2.73,27.81-5.17,44.4-2.98,45.62,6.04,66.3,62.08,85.35,97.79Z" />
            <path class="cls-14"
                d="M189.47,62.51c.25,3.41,2.94,4.4,5.99,3.99.3.77.62,1.96,1,2.99.57,1.56-.05,4.12,2.07,5.41l53.8,39.05c.7.67.92,1.52,1.01,2.44-1.67-.43-3.74-.59-5.47-1.01-3.9.17,6.41,10.07,5.47,1.01,5.43,1.39,24.73,17.02,30.85,21.55,28.98,21.45,56.17,43.78,84.92,65.28-1.64,4.24-6.91-1.87-10.98-1-4.4-2.55-8.63-5.47-12.97-7.98-.15-2.13-4.07-4.81-5.65-5.83-18.4-11.83-38.17-22.24-57.12-33.7-33.25-20.11-65.59-40.98-98.91-61.27l4.99-16.96c-10.04.37-4.54-6.72-5.99-12.98,2.31-.78,4.53-1.09,6.99-1Z" />
            <path class="cls-4"
                d="M88.67,403.81c-2.69-.48-4.78-3.05-6.5-4.98-14.96-16.83-29.21-35.67-43.4-52.9,4.53-18.03,10.52-35.49,16.23-53.17.38-1.17,1.7-1.6,1.74-1.72,4.89,5.65,8.05,13.03,12.56,18.87,7.73,10.02,17.26,16.24,27.24,23.72l-7.86,70.18ZM59.73,339.94c-1.27,1.08-2.74-.18-3.61,3.96-.97,4.64.63,8,5.38,8.84,2.38.42,2.93-.63,4.21-.82,1.57-.23,4.44.64,5.56-.93.93-1.32.89-10.5-.54-11.56-.57-.43-4.94-1.39-6.01-1.48-6.41-.52-4.07,1.21-4.99,2Z" />
            <path class="cls-8"
                d="M256.34,176.28c.36.52,9.58,5.69,11.04,6.42s3.32.41,4.87,1.12c2.1.97,4.84,5.68,8.04,2.43,10.98,6.42,43.08,22.3,48.54,31.79,6.11,10.61,2.68,24.95-8.62,30.08-11.74,5.33-22.69,10.45-32.94,16.97-1.56,1-9.94,4.49-12.97,5.99-1.85-1.03-2.05-1.11-1.94-3.3.35-7.03,3.35-15.06,3.92-22.17.53-6.62-.35-13.76.02-20.44,4.64-2.99,6.51-3.5,7.98-8.98.73-2.71,1.29-5.12,1-7.98,1.97-1.5.16-2.3,0-2.99-1.04-4.47-2.86-8.22-6.99-9.98-.6-.25-1.09-.68-2-1-2-4.91-8.8-6.16-12.97-8.98-.86-.58-2.4-1.5-2.99-2-.16-.14-.17-1.74-.94-2.51-1.52-1.5-3.73-2.2-5.04-3.98l1.99-.49Z" />
            <path class="cls-9"
                d="M359.14,267.09c4.57.3,5.54,6.34,7.14,9.33,1.2,2.24,5.08,4.42,3.39,7.62-2.25,4.27-47.42,21.37-55.14,24.76-25.41,11.14-51.39,23.32-76.93,34.05-32.4,13.61-65.56,24.7-95.03,41-2.52,1.4-5.64,2.22-7.98,3.99-.37-.34-2.39.82-1.99-.99,15.34-8.48,29.6-19.25,45.9-25.96.83-.34,11.31-4,11.98-3.99.16,0,1.2,1.11,2.46,1.07,3.1-.09,25.14-10.2,25.48-11.56l-2.99-3.48c41.68-22.93,83.9-46.08,126.04-67.12,3.08-1.54,15.62-8.86,17.68-8.72Z" />
            <path class="cls-8"
                d="M135.58,26.58l41.4,30.96c1.25,1.07,5.22,4.73,5.51,5.97,1.45,6.26-4.05,13.36,5.99,12.98l-4.99,16.96c-.24-.15-.76.15-1,0-30.02-18.27-60.49-38.54-91.62-54.59-1.61-.83-3.38-.59-3.2-3.29,15.67-2.41,32.11-6.18,47.91-8.98Z" />
            <path class="cls-10"
                d="M287.28,265.1l1,2c-.19.1-.8,1.38-2,2h-1c-2.63,1.35-5.33,2.68-7.98,3.99-5.8,2.87-11.41,5.73-16.67,8.75-3.41,1.96-6.78,3.1-7.28,7.21-.25.14-.75-.14-1,0-1.81-.17-3.35.14-3.99,2-14.5,8.31-29.01,16.55-43.61,24.76-12.26,6.89-22.28,17.93-38.23,10.17-1.67-4.46-4.38-7.02-4.99-11.98,5.33-1.24,2.4,4.99,5.21,6.33,6.01,2.86,24.52-8.09,31.25-10.29,2.09-4.95-1.93-2.23-4.87-3.01-1.05-.28-.56-1.95-.65-2.01v-1c.69,0,11.36-3.67,13.15-4.32,22.1-8.01,47.61-18.19,68.69-28.62,3.03-1.5,11.41-4.99,12.97-5.99Z" />
            <path class="cls-7"
                d="M356.15,258.11c-.61,2.78,2.72,4.37,3.99,6.99l-1,2c-2.05-.14-14.6,7.18-17.68,8.72-42.13,21.04-84.36,44.19-126.04,67.12-2.92,1.6-4.34,3.24-5.73,4.01-6.24,3.49-13.06,6.28-19.22,9.96-.67,0-11.15,3.65-11.98,3.99l20.41-13.02c51.38-30.49,105.23-59.95,157.24-89.77Z" />
            <path class="cls-9"
                d="M452.96,202.22c.2-.03,2.53,1.22,3.99,0-.02,1.32.06,2.67,0,3.99-.23,6-2.88,6.37-3.99,9.98-31.69,14.57-61.16,33.76-92.82,48.9-1.27-2.62-4.6-4.2-3.99-6.99,16.01-9.18,31.48-19.34,47.91-27.94,2.98-1.56,1.84-1.91,2-2,12.49-7.18,25.37-13.89,37.93-20.96,1.87,2.02,5.06-.34,3.99-2.99,1.72-.88,2.99-1.69,4.99-2Z" />
            <path class="cls-8"
                d="M187.48,134.36c5.82.22,13.03,6.22,17.96,8.98-3.3,3.56-4.56.35-7.96-.53-3.99-1.04-7.86-2.12-12-2.47-2.56-.22-6.44-.24-8.98,0-13.35,1.27-13.58,5.3-13.97,16.97-.58,17.22.09,34.66,0,51.89-.12,23.3-.71,46.68-1,69.86h-2c0-.33,0-.67,0-1-.23-10.17-1.17-23.1-1.99-33.48-.24-3.06.5-2.57-3-2.45-.34-17.72.68-35.26,1-52.89.04-1.99-.04-3.99,0-5.99,3.23.56,1.67-1.63,1.96-3.48,1.07-6.83-.28-9.72-.08-15.02.07-1.81,1.9-1.32,2.09-2.14.86-3.68-.3-9.74,1.02-14.29,3.03-10.49,17.26-14.34,26.95-13.97Z" />
            <path class="cls-13"
                d="M87.68,35.56c-.18,2.7,1.59,2.47,3.2,3.29,31.13,16.05,61.6,36.31,91.62,54.59l-2,5.99c-17.28-9.98-34.64-19.91-51.9-29.94-.25-.14-.75.14-1,0-13.19-7.67-41.24-21.83-51.38-30.96-.52-.46-1.86-1.5-1.52-1.96,4.16-1.89,8.92-.39,12.97-1.01Z" />
            <path class="cls-10"
                d="M183.49,93.45c33.33,20.29,65.66,41.16,98.91,61.27,18.94,11.46,38.72,21.87,57.12,33.7,1.58,1.02,5.5,3.7,5.65,5.83-54.75-31.72-109.85-63.13-164.68-94.81l2-5.99c.24.15.76-.15,1,0Z" />
            <path class="cls-14"
                d="M205.44,143.34c16.8,9.4,33.23,19.36,49.9,28.94.49,1.01.51,3.28,1,3.99l-1.99.49c1.31,1.78,3.53,2.48,5.04,3.98.78.77.78,2.37.94,2.51l-74.85-42.91c4.14.35,8.01,1.43,12,2.47,3.4.88,4.66,4.09,7.96.53Z" />
            <path class="cls-16"
                d="M159.53,278.07c0,.33,0,.67,0,1,.07,3.59.11,8.64.08,12.47-.04,6.03-4.19,15.41,1.91,19.46.06.98-.12,2.03,0,2.99.61,4.96,3.32,7.51,4.99,11.98-.31-.15-5.26-3.65-5.55-3.93-2.16-2.11-6.66-8.86-7.19-11.77-2.01-11.05-.5-35.35-.26-47.71.04-1.89-.47-3.88,1.03-5.45,0,.13.91.28,1.04,2.42.33,5.55-2.63,17.34,3.95,18.53Z" />
            <path class="cls-3"
                d="M128.59,94.44c-.05-4.98.04-9.99,0-14.96-1.73-.53-1.77.9-1.99.99-4.48,1.85-5.21,8.67-9.39,12.59-7.69,7.2-12.86,19.03-20.55,27.33l30.94-50.9c.25.14.75-.14,1,0-.31,8.13,2.86,16.95,0,24.95Z" />
            <path class="cls-6"
                d="M187.48,134.36c-9.69-.36-23.91,3.48-26.95,13.97l-1.01,1.99h-.97c-1.06-2.28,3.57-8.88-1.01-7.97,5.67-10.19,19.98-15.07,29.94-7.98Z" />
            <path class="cls-13"
                d="M369.12,203.22c6.33,4.74,14.19,10.08,20.86,14.57,2.75,1.85,5.04,4.43,8.09,5.39.2.47.76,1.63,1,2-2.07.27-3.28-.72-4.91-1.57-11.69-6.12-24.34-14.63-36.01-21.38,4.07-.87,9.34,5.24,10.98,1Z" />
            <path class="cls-1"
                d="M157.54,142.35c4.58-.91-.05,5.7,1.01,7.98h.97s1.01-1.99,1.01-1.99c-1.32,4.55-.16,10.6-1.02,14.29-.19.82-2.02.33-2.09,2.14-.2,5.3,1.15,8.18.08,15.02-.29,1.85,1.27,4.05-1.96,3.48.25-12.96-.86-26.1,1-38.92.25-.65.65-1.38,1-2Z" />
            <path class="cls-13"
                d="M320.22,248.13c-4.53,5.49-11.51,7.77-17.28,11.14-4.96,2.89-9.82,5.29-14.65,7.82l-1-2c10.24-6.52,21.2-11.63,32.94-16.97Z" />
            <path class="cls-1"
                d="M154.54,242.14c3.49-.12,2.75-.62,3,2.45.82,10.38,1.77,23.31,1.99,33.48-6.58-1.19-3.63-12.98-3.95-18.53-.13-2.14-1.03-2.29-1.04-2.42-.23-4.95.1-10.01,0-14.97Z" />
            <path class="cls-13"
                d="M280.3,186.26c-3.2,3.24-5.94-1.47-8.04-2.43-1.54-.71-3.43-.41-4.87-1.12s-10.68-5.9-11.04-6.42c-.49-.71-.51-2.98-1-3.99,8.25,4.74,16.72,9.15,24.95,13.97Z" />
            <path class="cls-6"
                d="M406.05,228.17c-.16.09.99.43-2,2-1.95-1.67-3.55-2.74-4.99-4.99-.24-.37-.8-1.53-1-2-.12-.28.11-.7,0-1l1.99-.49c-1.12-1.36-.77-3.07-2.99-2.5-.11-.29.1-.7,0-1-1.4-3.99-2.87-7.89-3.99-11.98l12.97,21.96Z" />
            <path class="cls-16"
                d="M155.54,183.26c-.04,1.99.04,3.99,0,5.99-1.66-1.04-.99-3.79-1.02-5.47-.14-10.95-1.59-29.87,2.01-39.43-1.85,12.82-.74,25.96-1,38.92Z" />
            <path class="cls-13"
                d="M277.3,273.08c.16,2.47-1.54,2.53-2.98,3.51-6.04,4.13-14.46,8.69-20.98,12.46.5-4.12,3.87-5.25,7.28-7.21,5.27-3.03,10.87-5.88,16.67-8.75Z" />
            <path class="cls-1"
                d="M452.96,202.22c.35-1.63,6.38-4.64,6.98-3.99,0,2.7-.25,6.54-2.99,7.98.05-1.33-.02-2.67,0-3.99-1.46,1.22-3.79-.03-3.99,0Z" />
            <path class="cls-3" d="M94.66,123.38c-.1,3.24.02,6.97-3.99,5.99,1.69-2.56,1.23-2.9,3.99-5.99Z" />
            <path class="cls-1" d="M447.96,204.22c1.07,2.66-2.12,5.01-3.99,2.99.88-.49,1.97-1.95,3.99-2.99Z" />
            <path class="cls-13" d="M252.35,289.05c-1.44.83-2.79,1.31-3.99,2,.64-1.86,2.18-2.17,3.99-2Z" />
            <path class="cls-13" d="M285.29,269.09h1c-1.18.61-.95-.02-1,0Z" />
            <path class="cls-6" d="M342.17,109.41l-1-1c.15.28.82.56,1,1Z" />
            <path class="cls-6" d="M393.07,205.22c-.36-.26-.84-.59-1-1,.42.19.88.55,1,1Z" />
            <path class="cls-1"
                d="M390.84,338.15c11.22-1.58,13.97,16.35,4.52,18.55-14.16,3.29-18.73-16.54-4.52-18.55Z" />
            <path class="cls-9" d="M253.35,364.9c2.61,4.13-5.51,5.97-6.86,4.88-3.6-2.94,3.99-5.75,6.86-4.88Z" />
            <path class="cls-9" d="M326.27,358.83c-2.17-3.38,5.09-5.29,5.91-2.4,1.23,4.3-5.1,3.67-5.91,2.4Z" />
            <path class="cls-11"
                d="M93.41,260.33c2.59-.23,7.5,1.87,8.08,4.47.09.42-.79,8.03-.98,8.63-.8,2.55-11.83,2.57-12.69,0-1.45-4.34.11-12.63,5.59-13.11Z" />
            <path class="cls-8"
                d="M196.46,69.49c8.72-4.46,15.86-8.81,25.72-10.71,6.41-1.23,24.16-3.84,29.12-.72,1.56.98,8.66,8.45,10.54,10.42,42.91,45.15,82.72,94.29,124.73,140.74,2.78,3.07,6.66,7.5,10.49,8.97.1.3-.11.7,0,1,.35.98.63,1.99,1,2.99.11.3-.12.72,0,1-3.05-.96-5.34-3.55-8.09-5.39-6.67-4.48-14.52-9.83-20.86-14.57-28.75-21.5-55.94-43.83-84.92-65.28-6.12-4.53-25.42-20.16-30.85-21.55-.1-.92-.31-1.77-1.01-2.44l-53.8-39.05c-2.12-1.29-1.51-3.85-2.07-5.41ZM274.31,90.45h-7c-1.63,8.42,8.59,8.52,7,0Z" />
            <path class="cls-8" d="M195.46,25.59c1.8,8.56-9.91,4.17-6.98,1,1.89-2.04,3.53,2.77,3.98,1.99l3-2.98Z" />
            <path class="cls-8" d="M195.46,66.5c-3.05.4-5.74-.58-5.99-3.99,4.46.17,4.4-.05,5.99,3.99Z" />
            <path class="cls-10" d="M253.35,116.4c.93,9.06-9.38-.85-5.47-1.01,1.74.42,3.81.59,5.47,1.01Z" />
            <path class="cls-15"
                d="M65.72,351.92c-1.09-1.68-6.13-1-6.85-2.13s.23-9.49.86-9.84c.79-.44,4.51.78,4.99-2,1.07.09,5.44,1.05,6.01,1.48,1.43,1.06,1.48,10.24.54,11.56-1.11,1.58-3.99.7-5.56.93Z" />
            <path class="cls-11"
                d="M64.72,337.95c-.48,2.78-4.2,1.55-4.99,2-.63.35-1.59,8.7-.86,9.84s5.76.45,6.85,2.13c-1.28.19-1.83,1.24-4.21.82-4.75-.84-6.35-4.19-5.38-8.84.86-4.13,2.34-2.88,3.61-3.96.92-.79-1.42-2.51,4.99-2Z" />
            <path class="cls-10"
                d="M185.48,140.35l74.85,42.91c.59.5,2.13,1.41,2.99,2,.22,4.23,5.49,7.19,8.99,8.52,1.49.57,3.18.18,3.98.46.42,1.02-.94,2.47,1.49,1.99l.51-.99c4.12,1.76,5.95,5.51,6.99,9.98-2.65,1.17-.02,2.81,0,2.99.29,2.86-.27,5.28-1,7.98-4.88,2.19-9.88,2.23-8.98,8.98-12.44,7.93-25.83,14.29-38.46,21.92-14.27,8.62-28.01,19.26-42.68,27.18-12.03,6.49-19.19,9.18-29.66-1.9-.46-19.87.68-39.86.02-59.72-.06-1.92,1.02-4-2-3.45.09-17.24-.58-34.68,0-51.89l4.98-9.49,8.99-7.48c2.54-.24,6.42-.22,8.98,0Z" />
            <path class="cls-14"
                d="M162.53,209.21c3.01-.56,1.93,1.53,2,3.45.66,19.86-.48,39.85-.02,59.72,10.47,11.08,17.63,8.39,29.66,1.9,14.67-7.92,28.42-18.56,42.68-27.18,12.63-7.63,26.02-13.99,38.46-21.92.24-.15.76.15,1,0-.37,6.68.51,13.82-.02,20.44-.57,7.11-3.57,15.14-3.92,22.17-.11,2.19.09,2.27,1.94,3.3-21.08,10.43-46.59,20.61-68.69,28.62-1.78.65-12.46,4.31-13.15,4.32-3.6.02-11.19-7.14-14.91-8.55l-16.03-13.41c.01-1-.01-2,0-2.99.29-23.18.88-46.56,1-69.86Z" />
            <path class="cls-13"
                d="M276.3,194.24c.91.32,1.4.74,2,1l-.51.99c-2.43.48-1.07-.96-1.49-1.99-.8-.28-2.49.1-3.98-.46-3.5-1.33-8.77-4.29-8.99-8.52,4.17,2.82,10.97,4.07,12.97,8.98Z" />
            <path class="cls-13"
                d="M284.29,216.2c-1.47,5.48-3.34,5.99-7.98,8.98-.24.15-.76-.15-1,0-.9-6.75,4.1-6.79,8.98-8.98Z" />
            <path class="cls-13" d="M285.29,208.21c-.02-.18-2.65-1.82,0-2.99.16.69,1.97,1.49,0,2.99Z" />
            <path class="cls-1"
                d="M215.42,342.94l2.99,3.48c-.34,1.37-22.38,11.47-25.48,11.56-1.26.04-2.3-1.07-2.46-1.07,6.16-3.68,12.98-6.46,19.22-9.96,1.39-.78,2.82-2.41,5.73-4.01Z" />
            <path class="cls-13"
                d="M192.47,305.02c.09.06-.4,1.73.65,2.01,2.94.78,6.96-1.94,4.87,3.01-6.74,2.2-25.24,13.15-31.25,10.29-2.8-1.33.12-7.56-5.21-6.33-.12-.96.06-2.01,0-2.99-.22-3.62.08-7.35,0-10.98,4.65,1.1,9.88,4.29,14.56,4.91,2.93.39,15.6-.43,16.38.08Z" />
            <path class="cls-8"
                d="M192.47,304.02v1c-.78-.51-13.45.3-16.38-.08-4.68-.62-9.91-3.8-14.56-4.91-.12-5.96-.08-12.01,0-17.96l16.03,13.41c3.71,1.41,11.31,8.56,14.91,8.55Z" />
            <path class="cls-1"
                d="M161.53,279.07c-.01,1,.01,2,0,2.99-.08,5.96-.12,12.01,0,17.96.08,3.63-.22,7.36,0,10.98-6.11-4.05-1.96-13.43-1.91-19.46.03-3.84-.02-8.88-.08-12.47h2ZM160.52,307.01c.72-1.4-.63-2.66-.98-1.99-.72,1.4.63,2.66.98,1.99Z" />
            <path class="cls-14" d="M176.5,140.35l-8.99,7.48-4.98,9.49c.39-11.67.62-15.69,13.97-16.97Z" />
            <path class="cls-2" d="M397.07,219.19c2.22-.57,1.86,1.14,2.99,2.5l-1.99.49c-.37-1-.64-2.01-1-2.99Z" />
            <path class="cls-14" d="M274.31,90.45c1.6,8.52-8.63,8.42-7,0h7Z" />
            <path class="cls-16" d="M160.52,307.01c-.35.68-1.69-.58-.98-1.99.35-.68,1.69.58.98,1.99Z" />
        </svg>
